<?xml version="1.0" encoding="UTF-8"?>
<svg data-bbox="-0.002 0 585.546 103.74" viewBox="0 0 585.55 103.74" xmlns="http://www.w3.org/2000/svg" data-type="color">
    <g>
        <path d="M505.81 37c-3.11 1.11-5.95 3.94-8.14 7.39v-6.76h-5.76v44.74h5.76V65.69c0-6.43 0-11.14 1.54-15.14s4.62-7.29 7.93-8.16c1.51-.4 3.08-.29 4.49.28.97-1.56 1.93-3.12 2.9-4.68-2.65-1.57-5.81-2.03-8.72-.99" fill="#f2bb6a" data-color="1"/>
        <path d="M455.6 52.36a23.3 23.3 0 0 0-4.37-7.6 23.38 23.38 0 0 0-14.67-7.94c-2.73-.36-5.5-.24-8.18.37a23.37 23.37 0 0 0-14.23 9.7 23.6 23.6 0 0 0-3.34 7.48c-.66 2.67-.85 5.44-.55 8.17.32 2.93 1.19 5.78 2.57 8.38 1.38 2.61 3.23 4.93 5.47 6.85a23.38 23.38 0 0 0 15.12 5.61c2.95.01 5.87-.54 8.62-1.61a23.5 23.5 0 0 0 7.42-4.67c2.01-1.88 3.68-4.09 4.92-6.55-1.67-.84-3.33-1.69-5-2.53a17.82 17.82 0 0 1-8.28 8.06c-3.58 1.69-7.62 2.13-11.49 1.26s-7.32-3-9.84-6.06a17.8 17.8 0 0 1-4.03-10.83h41.15c.05-2.75-.38-5.49-1.28-8.09Zm-39.28 3.11c1-3.8 3.23-7.16 6.34-9.55 3.11-2.4 6.93-3.7 10.85-3.7s7.74 1.3 10.85 3.7 5.34 5.76 6.34 9.55z" fill="#f2bb6a" data-color="1"/>
        <path fill="#f2bb6a" d="M327.08 20.36v62.01h-5.76V20.36z" data-color="1"/>
        <path d="M276.98 45.53a25.1 25.1 0 0 0-5.37-4.98 23 23 0 0 0-6.15-2.99 20.4 20.4 0 0 0-3.55-.77c-1.14-.15-2.27-.19-3.41-.15-2.39.08-4.75.55-6.99 1.38a22.93 22.93 0 0 0-11.02 8.61 23.7 23.7 0 0 0 0 26.74 23 23 0 0 0 11.02 8.61c2.25.83 4.6 1.29 6.99 1.38 1.14.04 2.27 0 3.41-.15 1.21-.16 2.38-.41 3.55-.77a22.8 22.8 0 0 0 6.15-2.99c2.03-1.39 3.83-3.08 5.37-4.98v7.89h5.76V37.62h-5.76v7.9Zm-.72 21.01c-.89 2.26-2.24 4.31-3.96 6.03a17.9 17.9 0 0 1-6.03 3.96c-2.08.83-4.3 1.25-6.54 1.25s-4.46-.42-6.54-1.25c-2.26-.89-4.31-2.24-6.03-3.96a17.9 17.9 0 0 1-3.96-6.03c-.83-2.08-1.25-4.3-1.25-6.54s.42-4.46 1.25-6.54c.89-2.26 2.24-4.31 3.96-6.03s3.77-3.06 6.03-3.96c2.08-.83 4.3-1.25 6.54-1.25s4.46.42 6.54 1.25c2.26.89 4.31 2.24 6.03 3.96s3.06 3.77 3.96 6.03c.83 2.08 1.25 4.3 1.25 6.54s-.42 4.46-1.25 6.54" fill="#f2bb6a" data-color="1"/>
        <path d="M569.75 76.08a17.77 17.77 0 0 1-11.49 1.26c-3.86-.87-7.33-3-9.84-6.06a17.8 17.8 0 0 1-4.03-10.83h41.15c.05-2.75-.38-5.49-1.28-8.09a23.3 23.3 0 0 0-4.37-7.6 23.38 23.38 0 0 0-14.67-7.94c-2.73-.36-5.5-.24-8.18.37a23.37 23.37 0 0 0-14.23 9.7 23.6 23.6 0 0 0-3.34 7.48c-.66 2.67-.85 5.44-.55 8.17.32 2.93 1.19 5.78 2.57 8.38 1.38 2.61 3.23 4.93 5.47 6.85a23.38 23.38 0 0 0 15.12 5.61c2.95.01 5.87-.54 8.62-1.61a23.5 23.5 0 0 0 7.42-4.67c2.01-1.88 3.68-4.09 4.92-6.55-1.67-.84-3.33-1.69-5-2.53a17.82 17.82 0 0 1-8.28 8.06Zm-18.43-30.16c3.11-2.4 6.93-3.7 10.85-3.7s7.74 1.3 10.85 3.7 5.34 5.76 6.34 9.55h-34.38c1-3.8 3.23-7.16 6.34-9.55" fill="#f2bb6a" data-color="1"/>
        <path fill="#f2bb6a" d="M375.83 20.36h-5.76v17.27h-9.12v4.97h9.12v39.77h5.76V42.6h9.13v-4.97h-9.13z" data-color="1"/>
        <path d="M179.12 37c-5.07 1.26-9.96 4.69-13.01 8.74V20.36h-5.76v62.01h5.76V65.69c0-6.57 0-11.37 2.4-15.45s7.19-7.44 12.03-8.33c4.85-.89 9.74.7 12.19 4.22s2.45 8.96 2.45 14.89v21.34h5.76V61.02c0-6.47 0-13.67-3.7-18.5s-11.09-7.27-18.13-5.53Z" fill="#f2bb6a" data-color="1"/>
        <path d="M103.93 30.26c-3.2 2.99-4.36 6.22-3.47 9.69.73 2.82 1.19 5.7 1.4 8.6H89.93v-33.1c0-4.9-2.63-6.79-6.65-9.34v91.52c4.02-2.55 6.65-4.44 6.65-9.34V55.2h11.93c-.2 2.9-.67 5.78-1.4 8.6-.89 3.47.26 6.7 3.47 9.69a54.25 54.25 0 0 0 0-43.23" fill="#f2bb6a" data-color="1"/>
        <path d="M18.49 15.45v33.09H6.56c.2-2.9.67-5.78 1.4-8.6.89-3.47-.26-6.7-3.47-9.69a54.25 54.25 0 0 0 0 43.23c3.2-2.99 4.36-6.22 3.47-9.69-.73-2.82-1.19-5.7-1.4-8.6h11.93v33.09c0 4.9 2.63 6.79 6.65 9.34V6.11c-4.02 2.55-6.65 4.44-6.65 9.34" fill="#f2bb6a" data-color="1"/>
        <path d="M69.97 48.54H38.45V0c-2.28.69-4.49 1.52-6.65 2.51v98.72c2.17.98 4.38 1.82 6.65 2.51V55.2h31.52v48.54c2.28-.69 4.49-1.52 6.65-2.51V2.51A55 55 0 0 0 69.97 0z" fill="#f2bb6a" data-color="1"/>
    </g>
</svg>
